<?xml version="1.0" encoding="UTF-8" standalone="no"?>
<svg id="svg6248" height="64" version="1.1" width="64" xmlns="http://www.w3.org/2000/svg">
 <metadata id="metadata6253"/>
 <g id="layer1">
  <g id="g7824" transform="translate(2.999966 3.000573)">
   <path id="path7826" d="M 40 55 L 7.999 55 C 5.311 55.06 2.942 52.69 3 50 L 3 7.999 C 2.944 5.311 5.309 2.944 7.999 3 L 50 2.999 c 2.68 -.064 5.06 2.318 5 4.999 L 55 40 z" fill="#c8dff0" stroke="#295577" stroke-linecap="round" stroke-linejoin="round" stroke-width="2"/>
   <path id="path7828" d="m 55 40 l -10 0 c -2.76 0 -5 2.24 -5 5 l 0 10" style="fill:#5a9ed2;stroke:#295577;stroke-width:2;stroke-linecap:round;stroke-linejoin:round;stroke-dashoffset:5.3"/>
   <path id="path3897" d="M 29.000034 50.999427 V 6.9994272" fill="none" stroke="#295577" stroke-dasharray="4, 4" stroke-linejoin="round" stroke-width="2"/>
  </g>
  <g id="g3895" transform="matrix(.85919014 0 0 .85919014 -42.983026 2.269752)"/>
  <path id="path3899" d="M 27 50 V 14 H 11 Z" fill="#295577"/>
  <path id="path3901" d="M 37 14 V 50 L 53 14 Z" fill="#295577"/>
 </g>
</svg>
