<?xml version="1.0" encoding="UTF-8" standalone="no"?>
<svg xmlns="http://www.w3.org/2000/svg" xmlns:sodipodi="http://sodipodi.sourceforge.net/DTD/sodipodi-0.dtd" xmlns:inkscape="http://www.inkscape.org/namespaces/inkscape" width="64" height="64" version="1.1">
 <metadata/>
 <g inkscape:label="Layer 1" inkscape:groupmode="layer">
  <path sodipodi:nodetypes="ccccccccc" inkscape:connector-curvature="0" d="M 43,58 L 11,58 C 8.311,58.06 5.942,55.69 6,53 L 6,11 C 5.944,8.312 8.309,5.945 11,6.001 L 53,6 C 55.68,5.936 58.06,8.318 58,11 L 58,43 z" fill="#c8dff0" stroke="#295577" stroke-linejoin="round" stroke-linecap="round" color="#000000" stroke-width="2"/>
  <path sodipodi:nodetypes="cccc" inkscape:connector-curvature="0" d="M 58,43 L 48,43 C 45.24,43 43,45.24 43,48 L 43,58" fill="#5a9ed2" stroke="#295577" stroke-linejoin="round" stroke-linecap="round" stroke-width="2" stroke-dashoffset="5.3"/>
  <g transform="translate(-3.0000002,3)">
   <path d="M 27,16 37,24 37,8 z" inkscape:connector-curvature="0" sodipodi:nodetypes="cccc" fill="#295577" stroke="#295577" stroke-width="0" stroke-dashoffset="3"/>
   <path d="M 48,37 56,27 40,27 z" inkscape:connector-curvature="0" sodipodi:nodetypes="cccc" fill="#295577" stroke="#295577" stroke-width="0" stroke-dashoffset="3"/>
   <path transform="translate(-11,11)" sodipodi:open="true" sodipodi:end="6.2831853" sodipodi:start="4.712389" d="m 48,5 c 6.075132,1e-7 11,4.9248678 11,11" sodipodi:ry="11" sodipodi:rx="11" sodipodi:cy="16" sodipodi:cx="48" sodipodi:type="arc" fill="none" stroke="#295577" stroke-linecap="round" stroke-width="6" stroke-dashoffset="21"/>
  </g>
  <g transform="translate(3,-3.0000001)">
   <path d="M 37,48 27,40 27,56 z" inkscape:connector-curvature="0" sodipodi:nodetypes="cccc" fill="#295577" stroke="#295577" stroke-width="0" stroke-dashoffset="3"/>
   <path d="M 16,27 8,37 24,37 z" inkscape:connector-curvature="0" sodipodi:nodetypes="cccc" fill="#295577" stroke="#295577" stroke-width="0" stroke-dashoffset="3"/>
   <path transform="matrix(-1,0,0,-1,75,53)" sodipodi:open="true" sodipodi:end="6.2831853" sodipodi:start="4.712389" d="m 48,5 c 6.075132,1e-7 11,4.9248678 11,11" sodipodi:ry="11" sodipodi:rx="11" sodipodi:cy="16" sodipodi:cx="48" sodipodi:type="arc" fill="none" stroke="#295577" stroke-linecap="round" stroke-width="6" stroke-dashoffset="21"/>
  </g>
 </g>
</svg>
