<?xml version="1.0" encoding="UTF-8" standalone="no"?>
<svg xmlns="http://www.w3.org/2000/svg" xmlns:xlink="http://www.w3.org/1999/xlink" xmlns:sodipodi="http://sodipodi.sourceforge.net/DTD/sodipodi-0.dtd" xmlns:inkscape="http://www.inkscape.org/namespaces/inkscape" width="64" height="64" version="1.1">
 <defs>
  <linearGradient id="linearGradient3253">
   <stop stop-color="#ffffff"/>
   <stop offset="1" stop-color="#c8c800"/>
  </linearGradient>
  <radialGradient inkscape:collect="always" xlink:href="#linearGradient3253" id="radialGradient4966" cx="49" cy="22" r="9" gradientUnits="userSpaceOnUse" gradientTransform="matrix(0.77777783,-3.1358028e-8,3.1358026e-8,0.77777778,10.888885,4.8888904)"/>
 </defs>
 <metadata/>
 <g inkscape:label="Layer 1" inkscape:groupmode="layer">
  <path d="M 53.000001,47 53,62.016399" inkscape:connector-curvature="0" sodipodi:nodetypes="cc" fill="none" stroke="#295577" stroke-linejoin="round" stroke-width="10" stroke-dashoffset="16"/>
  <path inkscape:connector-curvature="0" d="M 53.000001,47 53,62.016399" sodipodi:nodetypes="cc" fill="none" stroke="#ff9805" stroke-linejoin="round" stroke-width="6" stroke-dashoffset="16"/>
  <path sodipodi:type="arc" sodipodi:cx="52" sodipodi:cy="25" sodipodi:rx="8" sodipodi:ry="8" d="m 60,25 a 8,8 0 1 1 -16,0 8,8 0 1 1 16,0 z" transform="translate(1,22.016399)" fill="url(#radialGradient4966)" stroke="#295577" stroke-linejoin="round" stroke-linecap="round" color="#000000" stroke-width="2"/>
  <path d="m 17,11.016399 -15,0" inkscape:connector-curvature="0" sodipodi:nodetypes="cc" fill="none" stroke="#295577" stroke-linejoin="round" stroke-width="10" stroke-dashoffset="16"/>
  <path inkscape:connector-curvature="0" d="m 17,11.016399 -15,0" sodipodi:nodetypes="cc" fill="none" stroke="#ff9805" stroke-linejoin="round" stroke-width="6" stroke-dashoffset="16"/>
  <path sodipodi:type="arc" sodipodi:cx="52" sodipodi:cy="25" sodipodi:rx="8" sodipodi:ry="8" d="m 60,25 a 8,8 0 1 1 -16,0 8,8 0 1 1 16,0 z" transform="translate(-35,-13.983601)" fill="url(#radialGradient4966)" stroke="#295577" stroke-linejoin="round" stroke-linecap="round" color="#000000" stroke-width="2"/>
  <g transform="matrix(1.072219,0,0,1.0725213,-3.0944801,-2.6712202)">
   <g transform="matrix(1.1561549,0,0,1.156155,-49.743536,5.150111)">
    <path d="m 66.494867,13.828713 10.48682,10.483864" inkscape:connector-curvature="0" sodipodi:nodetypes="cc" fill="none" stroke="#295577" stroke-linejoin="bevel" stroke-width="7.259083" stroke-dashoffset="13.8"/>
   </g>
   <path sodipodi:nodetypes="cccc" inkscape:connector-curvature="0" d="m 43.922445,37.921131 0,-18.647649 -18.652906,18.647649 z" fill="#295577" stroke="#295577" stroke-width="0" stroke-dashoffset="3"/>
  </g>
  <g transform="matrix(0.67742851,0,0,0.67761951,12.115797,10.173998)" fill="#c8dff0">
   <g transform="matrix(1.1561549,0,0,1.156155,-49.743536,5.150111)" stroke="#c8dff0" stroke-width="1.582778">
    <path sodipodi:nodetypes="cc" inkscape:connector-curvature="0" d="M 62.41206,9.7470805 76.981687,24.312577" stroke-linejoin="bevel" stroke-width="6.383065" stroke-dashoffset="13.8"/>
   </g>
   <path d="m 44.11418,38.112837 0,-19.184808 -19.190217,19.184808 z" inkscape:connector-curvature="0" sodipodi:nodetypes="cccc" stroke="#295577" stroke-width="0" stroke-dashoffset="3"/>
  </g>
 </g>
</svg>
