<?xml version="1.0" encoding="UTF-8" standalone="no"?>
<svg xmlns="http://www.w3.org/2000/svg" xmlns:xlink="http://www.w3.org/1999/xlink" xmlns:sodipodi="http://sodipodi.sourceforge.net/DTD/sodipodi-0.dtd" xmlns:inkscape="http://www.inkscape.org/namespaces/inkscape" width="64" height="64" version="1.1">
 <defs>
  <linearGradient id="linearGradient3253">
   <stop stop-color="#ffffff"/>
   <stop offset="1" stop-color="#c8c800"/>
  </linearGradient>
  <radialGradient inkscape:collect="always" xlink:href="#linearGradient3253" id="radialGradient4966" cx="49" cy="22" r="9" gradientUnits="userSpaceOnUse" gradientTransform="matrix(0.7778,0,0,0.7778,10.89,4.889)"/>
 </defs>
 <metadata/>
 <g inkscape:label="Layer 1" inkscape:groupmode="layer">
  <path d="M 14,50 L 50,14" inkscape:connector-curvature="0" sodipodi:nodetypes="cc" fill="none" stroke="#295577" stroke-linecap="round" stroke-width="10"/>
  <path d="M 14,50 L 50,14" inkscape:connector-curvature="0" sodipodi:nodetypes="cc" fill="none" stroke="#ff9805" stroke-linecap="round" stroke-width="6"/>
  <path sodipodi:type="arc" sodipodi:cx="52" sodipodi:cy="25" sodipodi:rx="8" sodipodi:ry="8" d="M 60,25 A 8,8 0 1 1 44,25 A 8,8 0 1 1 60,25 z" transform="matrix(1.121,0,0,1.121,-44.31,21.96)" fill="url(#radialGradient4966)" stroke="#295577" stroke-linejoin="round" stroke-linecap="round" color="#000000" stroke-width="1.7829"/>
  <path sodipodi:type="arc" sodipodi:cx="52" sodipodi:cy="25" sodipodi:rx="8" sodipodi:ry="8" d="M 60,25 A 8,8 0 1 1 44,25 A 8,8 0 1 1 60,25 z" transform="matrix(1.124,0,0,1.124,-8.469,-14.11)" fill="url(#radialGradient4966)" stroke="#295577" stroke-linejoin="round" stroke-linecap="round" color="#000000" stroke-width="1.7789"/>
  <g id="g5102" transform="translate(-3.0000009,1.968115)">
   <path transform="matrix(0.6586,0,0,0.6592,33.096801,29.121485)" sodipodi:open="true" sodipodi:end="1.5707963" sodipodi:start="0" d="M 30.203884,12 C 30.203884,22.053727 22.053728,30.203884 12,30.203884" sodipodi:ry="18.203884" sodipodi:rx="18.203884" sodipodi:cy="12" sodipodi:cx="12" sodipodi:type="arc" fill="none" stroke="#295577" stroke-linejoin="round" stroke-linecap="round" stroke-width="12.141449"/>
   <path sodipodi:nodetypes="ccc" d="m 39.200001,39.031885 27.6,0 -13.8,-14.4" inkscape:connector-curvature="0" fill="#295577" stroke="#c8dff0" stroke-linecap="square" stroke-width="0" stroke-dashoffset="17.5"/>
   <path sodipodi:nodetypes="cc" inkscape:connector-curvature="0" d="m 41.000001,49.031885 -10,0" fill="#295577" stroke="#295577" stroke-width="8"/>
   <path transform="matrix(0.6586,0,0,0.6592,33.107723,29.121485)" sodipodi:open="true" sodipodi:end="1.5707963" sodipodi:start="0" d="M 30.203884,12 C 30.203884,22.053727 22.053728,30.203884 12,30.203884" sodipodi:ry="18.203884" sodipodi:rx="18.203884" sodipodi:cy="12" sodipodi:cx="12" sodipodi:type="arc" fill="none" stroke="#c8dff0" stroke-linecap="round" stroke-width="6.070724"/>
   <path sodipodi:nodetypes="ccc" inkscape:connector-curvature="0" d="m 53,28.017309 -8.999999,9.014576 18,0" fill="#c8dff0" stroke="#c8dff0" stroke-linecap="square" stroke-width="0" stroke-dashoffset="17.5"/>
   <path d="m 41.000001,49.031885 -8,0" inkscape:connector-curvature="0" sodipodi:nodetypes="cc" fill="#295577" stroke="#c8dff0" stroke-width="4"/>
  </g>
  <use xlink:href="#g5102" transform="matrix(-1,0,0,-1,64,64)" width="64" height="64"/>
 </g>
</svg>
