<?xml version="1.0" encoding="UTF-8" standalone="no"?>
<svg xmlns="http://www.w3.org/2000/svg" xmlns:xlink="http://www.w3.org/1999/xlink" xmlns:sodipodi="http://sodipodi.sourceforge.net/DTD/sodipodi-0.dtd" xmlns:inkscape="http://www.inkscape.org/namespaces/inkscape" width="64" height="64" version="1.1">
 <defs>
  <linearGradient id="linearGradient3253">
   <stop stop-color="#ffffff"/>
   <stop offset="1" stop-color="#c8c800"/>
  </linearGradient>
  <radialGradient inkscape:collect="always" xlink:href="#linearGradient3253" id="radialGradient4966" cx="49" cy="22" r="9" gradientUnits="userSpaceOnUse" gradientTransform="matrix(0.77777783,-3.1358028e-8,3.1358026e-8,0.77777778,10.888885,4.8888904)"/>
 </defs>
 <metadata/>
 <g inkscape:label="Layer 1" inkscape:groupmode="layer">
  <path sodipodi:type="arc" sodipodi:cx="12" sodipodi:cy="12" sodipodi:rx="54.661404" sodipodi:ry="54.661404" d="M 66.661404,12 A 54.661404,54.661404 0 0 1 12.000001,66.661404" sodipodi:start="0" sodipodi:end="1.5707963" sodipodi:open="true" transform="matrix(0.6586,0,0,-0.6592,9.0968,54.926799)" fill="none" stroke="#295577" stroke-linejoin="round" stroke-linecap="round" stroke-width="15.176811"/>
  <path d="M 53,47.016399 53.000001,7" inkscape:connector-curvature="0" sodipodi:nodetypes="cc" fill="none" stroke="#295577" stroke-linejoin="round" stroke-linecap="square" stroke-width="10" stroke-dashoffset="4.5"/>
  <path d="M 57,11 22.000001,11" inkscape:connector-curvature="0" sodipodi:nodetypes="cc" fill="none" stroke="#295577" stroke-linejoin="round" stroke-linecap="square" stroke-width="10" stroke-dashoffset="4.5"/>
  <path d="m 53.000001,41 0,-37" inkscape:connector-curvature="0" sodipodi:nodetypes="cc" fill="none" stroke="#c8dff0" stroke-linejoin="round" stroke-width="6" stroke-dashoffset="21"/>
  <path d="m 23.000001,11 37,0" inkscape:connector-curvature="0" sodipodi:nodetypes="cc" fill="none" stroke="#c8dff0" stroke-linejoin="round" stroke-width="6" stroke-dashoffset="21"/>
  <path sodipodi:type="arc" sodipodi:cx="12" sodipodi:cy="12" sodipodi:rx="54.661404" sodipodi:ry="54.661404" d="M 66.661404,12 A 54.661404,54.661404 0 0 1 12,66.661404" sodipodi:start="0" sodipodi:end="1.5707963" transform="matrix(0.6586,0,0,-0.6592,9.0968,54.926799)" sodipodi:open="true" fill="none" stroke="#ff9805" stroke-linejoin="round" stroke-linecap="round" stroke-width="9.106087"/>
  <path d="M 53.000001,47 53,62.016399" inkscape:connector-curvature="0" sodipodi:nodetypes="cc" fill="none" stroke="#295577" stroke-linejoin="round" stroke-width="10" stroke-dashoffset="16"/>
  <path inkscape:connector-curvature="0" d="M 53.000001,47 53,62.016399" sodipodi:nodetypes="cc" fill="none" stroke="#ff9805" stroke-linejoin="round" stroke-width="6" stroke-dashoffset="16"/>
  <path sodipodi:type="arc" sodipodi:cx="52" sodipodi:cy="25" sodipodi:rx="8" sodipodi:ry="8" d="m 60,25 a 8,8 0 1 1 -16,0 8,8 0 1 1 16,0 z" transform="translate(1,22.016399)" fill="url(#radialGradient4966)" stroke="#295577" stroke-linejoin="round" stroke-linecap="round" color="#000000" stroke-width="2"/>
  <path d="m 17,11.016399 -15,0" inkscape:connector-curvature="0" sodipodi:nodetypes="cc" fill="none" stroke="#295577" stroke-linejoin="round" stroke-width="10" stroke-dashoffset="16"/>
  <path inkscape:connector-curvature="0" d="m 17,11.016399 -15,0" sodipodi:nodetypes="cc" fill="none" stroke="#ff9805" stroke-linejoin="round" stroke-width="6" stroke-dashoffset="16"/>
  <path sodipodi:type="arc" sodipodi:cx="52" sodipodi:cy="25" sodipodi:rx="8" sodipodi:ry="8" d="m 60,25 a 8,8 0 1 1 -16,0 8,8 0 1 1 16,0 z" transform="translate(-35,-13.983601)" fill="url(#radialGradient4966)" stroke="#295577" stroke-linejoin="round" stroke-linecap="round" color="#000000" stroke-width="2"/>
 </g>
</svg>
