<?xml version="1.0" encoding="UTF-8" standalone="no"?>
<svg xmlns="http://www.w3.org/2000/svg" xmlns:sodipodi="http://sodipodi.sourceforge.net/DTD/sodipodi-0.dtd" xmlns:inkscape="http://www.inkscape.org/namespaces/inkscape" width="64" height="64" version="1.1">
 <metadata/>
 <g inkscape:label="Layer 1" inkscape:groupmode="layer">
  <path sodipodi:nodetypes="ccccccccc" inkscape:connector-curvature="0" d="M 43,58 L 11,58 C 8.311,58.06 5.942,55.69 6,53 L 6,11 C 5.944,8.312 8.309,5.945 11,6.001 L 53,6 C 55.68,5.936 58.06,8.318 58,11 L 58,43 z" fill="#c8dff0" stroke="#295577" stroke-linejoin="round" stroke-linecap="round" color="#000000" stroke-width="2"/>
  <g>
   <path sodipodi:nodetypes="cc" inkscape:connector-curvature="0" d="M 47,32 32,17" fill="#5a9ed2" stroke="#5a9ed2" stroke-linejoin="round" stroke-linecap="round" stroke-width="4" stroke-dashoffset="5.3"/>
   <path transform="matrix(0,-1,1,0,8,92)" d="m 49,24 c 0,2.209139 -1.790861,4 -4,4 -2.209139,0 -4,-1.790861 -4,-4 0,-2.209139 1.790861,-4 4,-4 2.209139,0 4,1.790861 4,4 z" sodipodi:ry="4" sodipodi:rx="4" sodipodi:cy="24" sodipodi:cx="45" sodipodi:type="arc" inkscape:tile-cx="32" inkscape:tile-cy="17" inkscape:tile-w="8" inkscape:tile-h="8" inkscape:tile-x0="28" inkscape:tile-y0="13" fill="#5a9ed2" stroke="#5a9ed2" stroke-linejoin="bevel" stroke-linecap="square" stroke-width="2" stroke-dashoffset="13.8"/>
   <path inkscape:tile-y0="13" inkscape:tile-x0="28" inkscape:tile-h="8" inkscape:tile-w="8" inkscape:tile-cy="17" inkscape:tile-cx="32" sodipodi:type="arc" sodipodi:cx="45" sodipodi:cy="24" sodipodi:rx="4" sodipodi:ry="4" d="m 49,24 c 0,2.209139 -1.790861,4 -4,4 -2.209139,0 -4,-1.790861 -4,-4 0,-2.209139 1.790861,-4 4,-4 2.209139,0 4,1.790861 4,4 z" transform="matrix(0,-1,1,0,23,77)" fill="#5a9ed2" stroke="#5a9ed2" stroke-linejoin="bevel" stroke-linecap="square" stroke-width="2" stroke-dashoffset="13.8"/>
   <path sodipodi:nodetypes="cc" inkscape:connector-curvature="0" d="M 17,32 32,47" fill="#5a9ed2" stroke="#5a9ed2" stroke-linejoin="round" stroke-linecap="round" stroke-width="4" stroke-dashoffset="5.3"/>
   <path d="M 17,32 32,17" inkscape:connector-curvature="0" sodipodi:nodetypes="cc" fill="none" stroke="#295577" stroke-linejoin="round" stroke-linecap="round" stroke-width="4" stroke-dashoffset="5.3"/>
   <path transform="matrix(0,-1,1,0,-7,77)" d="m 49,24 c 0,2.209139 -1.790861,4 -4,4 -2.209139,0 -4,-1.790861 -4,-4 0,-2.209139 1.790861,-4 4,-4 2.209139,0 4,1.790861 4,4 z" sodipodi:ry="4" sodipodi:rx="4" sodipodi:cy="24" sodipodi:cx="45" sodipodi:type="arc" inkscape:tile-cx="32" inkscape:tile-cy="17" inkscape:tile-w="8" inkscape:tile-h="8" inkscape:tile-x0="28" inkscape:tile-y0="13" fill="#295577" stroke="#295577" stroke-linejoin="bevel" stroke-linecap="square" stroke-width="2" stroke-dashoffset="13.8"/>
   <path inkscape:tile-y0="13" inkscape:tile-x0="28" inkscape:tile-h="8" inkscape:tile-w="8" inkscape:tile-cy="17" inkscape:tile-cx="32" sodipodi:type="arc" sodipodi:cx="45" sodipodi:cy="24" sodipodi:rx="4" sodipodi:ry="4" d="m 49,24 c 0,2.209139 -1.790861,4 -4,4 -2.209139,0 -4,-1.790861 -4,-4 0,-2.209139 1.790861,-4 4,-4 2.209139,0 4,1.790861 4,4 z" transform="matrix(0,-1,1,0,8,62)" fill="#295577" stroke="#295577" stroke-linejoin="bevel" stroke-linecap="square" stroke-width="2" stroke-dashoffset="13.8"/>
   <path d="M 32,47 47,32" inkscape:connector-curvature="0" sodipodi:nodetypes="cc" fill="#5a9ed2" stroke="#5a9ed2" stroke-linejoin="round" stroke-linecap="round" stroke-width="4" stroke-dashoffset="5.3"/>
  </g>
  <path sodipodi:nodetypes="cccc" inkscape:connector-curvature="0" d="M 58,43 L 48,43 C 45.24,43 43,45.24 43,48 L 43,58" fill="#5a9ed2" stroke="#295577" stroke-linejoin="round" stroke-linecap="round" stroke-width="2" stroke-dashoffset="5.3"/>
 </g>
</svg>
