<?xml version="1.0" encoding="UTF-8" standalone="no"?>
<svg xmlns="http://www.w3.org/2000/svg" xmlns:sodipodi="http://sodipodi.sourceforge.net/DTD/sodipodi-0.dtd" xmlns:inkscape="http://www.inkscape.org/namespaces/inkscape" width="64" height="64" version="1.1">
 <metadata/>
 <g inkscape:label="Layer 1" inkscape:groupmode="layer">
  <g transform="translate(2.9999663,3.0005728)">
   <path d="M 40,55 7.999,55 C 5.311,55.06 2.942,52.69 3,50 L 3,7.999 C 2.944,5.311 5.309,2.944 7.999,3 L 50,2.999 c 2.68,-0.064 5.06,2.318 5,4.999 L 55,40 z" inkscape:connector-curvature="0" sodipodi:nodetypes="ccccccccc" fill="#c8dff0" stroke="#295577" stroke-linejoin="round" stroke-linecap="round" color="#000000" stroke-width="2"/>
   <path d="m 55,40 -10,0 c -2.76,0 -5,2.24 -5,5 l 0,10" inkscape:connector-curvature="0" sodipodi:nodetypes="cccc" fill="#5a9ed2" stroke="#295577" stroke-linejoin="round" stroke-linecap="round" stroke-width="2" stroke-dashoffset="5.3"/>
   <path sodipodi:nodetypes="cccccc" inkscape:connector-curvature="0" d="m 27.88401,55.016426 c -1.550736,0.03449 -2.917437,-1.327829 -2.883976,-2.874088 l 0,-24.142911 c -0.03231,-1.545109 1.332086,-2.905703 2.883976,-2.873513 l 24.230824,-5.74e-4 c 1.54612,-0.03678 2.919167,1.332427 2.884553,2.873513" stroke-dasharray="4 4" fill="none" stroke="#295577" stroke-linejoin="round" color="#000000" stroke-width="2" stroke-dashoffset="3"/>
  </g>
  <g transform="matrix(0.85919014,0,0,0.85919014,-42.983026,2.2697522)">
   <path sodipodi:nodetypes="cc" inkscape:connector-curvature="0" d="m 65.981687,13.312576 11,11.000001" fill="none" stroke="#295577" stroke-linejoin="bevel" stroke-linecap="round" stroke-width="4.655547" stroke-dashoffset="13.8"/>
  </g>
  <path d="M 26,26 26,16 16,26 z" inkscape:connector-curvature="0" sodipodi:nodetypes="cccc" fill="#295577" stroke="#295577" stroke-width="0" stroke-dashoffset="3"/>
  <path sodipodi:nodetypes="cccc" inkscape:connector-curvature="0" d="M 11,11 11,21 21,11 z" fill="#295577" stroke="#295577" stroke-width="0" stroke-dashoffset="3"/>
 </g>
</svg>
