<?xml version="1.0" encoding="UTF-8" standalone="no"?>
<svg xmlns="http://www.w3.org/2000/svg" xmlns:sodipodi="http://sodipodi.sourceforge.net/DTD/sodipodi-0.dtd" xmlns:inkscape="http://www.inkscape.org/namespaces/inkscape" width="64" height="64" version="1.1">
 <metadata/>
 <g inkscape:label="Layer 1" inkscape:groupmode="layer">
  <path sodipodi:nodetypes="ccccccccc" inkscape:connector-curvature="0" d="M 43,58 L 11,58 C 8.311,58.06 5.942,55.69 6,53 L 6,11 C 5.944,8.312 8.309,5.945 11,6.001 L 53,6 C 55.68,5.936 58.06,8.318 58,11 L 58,43 z" fill="#c8dff0" stroke="#295577" stroke-linejoin="round" stroke-linecap="round" color="#000000" stroke-width="2"/>
  <path d="M 17,47 L 17,17 L 47,17 L 47,47 z" inkscape:connector-curvature="0" sodipodi:nodetypes="ccccc" fill="none" stroke="#295577" stroke-linejoin="round" stroke-linecap="round" stroke-width="4" stroke-dashoffset="5.3"/>
  <path sodipodi:nodetypes="cccc" inkscape:connector-curvature="0" d="M 58,43 L 48,43 C 45.24,43 43,45.24 43,48 L 43,58" fill="#5a9ed2" stroke="#295577" stroke-linejoin="round" stroke-linecap="round" stroke-width="2" stroke-dashoffset="5.3"/>
  <path d="M 10,32 L 54,32" inkscape:connector-curvature="0" fill="none" stroke="#c8dff0" stroke-linejoin="round" stroke-width="11.8" stroke-dashoffset="5.3"/>
  <path sodipodi:nodetypes="cccc" inkscape:connector-curvature="0" d="M 47,36 L 55,26 L 39,26 z" fill="#295577" stroke="#295577" stroke-width="0" stroke-dashoffset="3"/>
  <path d="M 17,28 L 9,38 L 25,38 z" inkscape:connector-curvature="0" sodipodi:nodetypes="cccc" fill="#295577" stroke="#295577" stroke-width="0" stroke-dashoffset="3"/>
  <path d="M 32,10 L 32,54" inkscape:connector-curvature="0" fill="none" stroke="#c8dff0" stroke-linejoin="round" stroke-width="11.8" stroke-dashoffset="5.3"/>
  <path d="M 28,47 L 38,55 L 38,39 z" inkscape:connector-curvature="0" sodipodi:nodetypes="cccc" fill="#295577" stroke="#295577" stroke-width="0" stroke-dashoffset="3"/>
  <path sodipodi:nodetypes="cccc" inkscape:connector-curvature="0" d="M 36,17 L 26,9 L 26,25 z" fill="#295577" stroke="#295577" stroke-width="0" stroke-dashoffset="3"/>
 </g>
</svg>
