<?xml version="1.0" encoding="UTF-8" standalone="no"?>
<svg xmlns="http://www.w3.org/2000/svg" xmlns:xlink="http://www.w3.org/1999/xlink" xmlns:sodipodi="http://sodipodi.sourceforge.net/DTD/sodipodi-0.dtd" xmlns:inkscape="http://www.inkscape.org/namespaces/inkscape" width="64" height="64" version="1.1">
 <defs>
  <linearGradient id="linearGradient3253">
   <stop stop-color="#ffffff"/>
   <stop offset="1" stop-color="#c8c800"/>
  </linearGradient>
  <radialGradient inkscape:collect="always" xlink:href="#linearGradient3253" id="radialGradient4966" cx="49" cy="22" r="9" gradientUnits="userSpaceOnUse" gradientTransform="matrix(0.77777783,-3.1358028e-8,3.1358026e-8,0.77777778,10.888885,4.8888904)"/>
 </defs>
 <metadata/>
 <g inkscape:label="Layer 1" inkscape:groupmode="layer">
  <path sodipodi:type="arc" sodipodi:cx="12" sodipodi:cy="12" sodipodi:rx="40" sodipodi:ry="40" d="M 46.649283,-7.9856753 A 40,40 0 0 1 -8.0145333,46.632621" sodipodi:start="5.76" sodipodi:end="8.378" sodipodi:open="true" transform="matrix(0.6586,0,0,0.6592,19.28,19.26)" fill="none" stroke="#295577" stroke-linejoin="round" stroke-linecap="round" stroke-width="15.176811"/>
  <path sodipodi:type="arc" sodipodi:cx="12" sodipodi:cy="12" sodipodi:rx="40" sodipodi:ry="40" d="M 46.649283,-7.9856753 A 40,40 0 0 1 -8.0145333,46.632621" sodipodi:start="5.76" sodipodi:end="8.378" sodipodi:open="true" transform="matrix(0.6586,0,0,0.6592,19.28,19.26)" fill="none" stroke="#ff9805" stroke-linejoin="round" stroke-linecap="round" stroke-width="9.106087"/>
  <path sodipodi:type="arc" sodipodi:cx="52" sodipodi:cy="25" sodipodi:rx="8" sodipodi:ry="8" d="M 60,25 A 8,8 0 1 1 44,25 A 8,8 0 1 1 60,25 z" transform="translate(-38,25)" fill="url(#radialGradient4966)" stroke="#295577" stroke-linejoin="round" stroke-linecap="round" color="#000000" stroke-width="2"/>
  <path sodipodi:type="arc" sodipodi:cx="52" sodipodi:cy="25" sodipodi:rx="8" sodipodi:ry="8" d="M 60,25 A 8,8 0 1 1 44,25 A 8,8 0 1 1 60,25 z" transform="translate(-2,-11)" fill="url(#radialGradient4966)" stroke="#295577" stroke-linejoin="round" stroke-linecap="round" color="#000000" stroke-width="2"/>
 </g>
</svg>
