<?xml version="1.0" encoding="UTF-8" standalone="no"?>
<svg xmlns="http://www.w3.org/2000/svg" xmlns:sodipodi="http://sodipodi.sourceforge.net/DTD/sodipodi-0.dtd" xmlns:inkscape="http://www.inkscape.org/namespaces/inkscape" width="64" height="64" version="1.1">
 <metadata/>
 <g inkscape:label="Layer 1" inkscape:groupmode="layer">
  <g transform="translate(2.9999663,3.0005728)">
   <path d="M 40,55 7.999,55 C 5.311,55.06 2.942,52.69 3,50 L 3,7.999 C 2.944,5.311 5.309,2.944 7.999,3 L 50,2.999 c 2.68,-0.064 5.06,2.318 5,4.999 L 55,40 z" inkscape:connector-curvature="0" sodipodi:nodetypes="ccccccccc" fill="#c8dff0" stroke="#295577" stroke-linejoin="round" stroke-linecap="round" color="#000000" stroke-width="2"/>
   <path d="m 55,40 -10,0 c -2.76,0 -5,2.24 -5,5 l 0,10" inkscape:connector-curvature="0" sodipodi:nodetypes="cccc" fill="#5a9ed2" stroke="#295577" stroke-linejoin="round" stroke-linecap="round" stroke-width="2" stroke-dashoffset="5.3"/>
  </g>
  <g transform="translate(-3,-1)" fill="#ade9f7" stroke="#004c5b">
   <g transform="translate(0,-2)">
    <path d="m 32,16 0,32" inkscape:connector-curvature="0" sodipodi:nodetypes="cc" stroke="#295577" stroke-linejoin="round" stroke-linecap="round" stroke-width="4" stroke-dashoffset="5.3"/>
    <path inkscape:connector-curvature="0" d="M 48,32 16,32" sodipodi:nodetypes="cc" stroke="#295577" stroke-linejoin="round" stroke-linecap="round" stroke-width="4" stroke-dashoffset="5.3"/>
    <path transform="translate(-20,7)" d="m 60,25 c 0,4.418278 -3.581722,8 -8,8 -4.418278,0 -8,-3.581722 -8,-8 0,-4.418278 3.581722,-8 8,-8 4.418278,0 8,3.581722 8,8 z" sodipodi:ry="8" sodipodi:rx="8" sodipodi:cy="25" sodipodi:cx="52" sodipodi:type="arc" fill="#c8dff0" stroke="#295577" stroke-linejoin="round" stroke-linecap="round" color="#000000" stroke-width="4"/>
   </g>
  </g>
 </g>
</svg>
