<?xml version="1.0" encoding="UTF-8" standalone="no"?>
<svg xmlns="http://www.w3.org/2000/svg" xmlns:xlink="http://www.w3.org/1999/xlink" xmlns:sodipodi="http://sodipodi.sourceforge.net/DTD/sodipodi-0.dtd" xmlns:inkscape="http://www.inkscape.org/namespaces/inkscape" width="64" height="64" version="1.1">
 <defs>
  <linearGradient id="linearGradient3253-4">
   <stop stop-color="#ffffff"/>
   <stop offset="1" stop-color="#c8c800"/>
  </linearGradient>
  <radialGradient r="9" cy="19" cx="47.714287" gradientTransform="matrix(0.77777783,-3.1358028e-8,3.1358026e-8,0.77777778,10.888885,4.8888904)" gradientUnits="userSpaceOnUse" id="radialGradient14070" xlink:href="#linearGradient3253-4" inkscape:collect="always"/>
 </defs>
 <metadata/>
 <g inkscape:label="Layer 1" inkscape:groupmode="layer">
  <g>
   <path d="m 42.999966,58.000573 -32.001,0 c -2.6879997,0.06 -5.0569997,-2.31 -4.9989997,-5 l 0,-42.001 c -0.056,-2.6880002 2.309,-5.0550002 4.9989997,-4.9990002 l 42.001,-10e-4 c 2.68,-0.064 5.06,2.318 5,4.9990002 l 0,32.002 z" inkscape:connector-curvature="0" sodipodi:nodetypes="ccccccccc" fill="#c8dff0" stroke="#295577" stroke-linejoin="round" stroke-linecap="round" color="#000000" stroke-width="2"/>
   <path d="m 57.999966,43.000573 -10,0 c -2.76,0 -5,2.24 -5,5 l 0,10" inkscape:connector-curvature="0" sodipodi:nodetypes="cccc" fill="#5a9ed2" stroke="#295577" stroke-linejoin="round" stroke-linecap="round" stroke-width="2" stroke-dashoffset="5.3"/>
  </g>
  <path sodipodi:type="arc" sodipodi:cx="52" sodipodi:cy="25" sodipodi:rx="8" sodipodi:ry="8" d="m 60,25 a 8,8 0 1 1 -16,0 8,8 0 1 1 16,0 z" transform="matrix(2.25,0,0,2.25,-88,-27.25)" fill="url(#radialGradient14070)" stroke="#295577" stroke-linejoin="round" stroke-linecap="round" color="#000000" stroke-width="0.888889"/>
  <g transform="translate(3,0)">
   <g transform="translate(-3,7)" fill="none" stroke="#295577" stroke-linecap="round" stroke-width="3">
    <path sodipodi:open="true" sodipodi:type="arc" sodipodi:cx="44" sodipodi:cy="34" sodipodi:rx="11" sodipodi:ry="11" d="M 53.526279,39.5 C 50.488713,44.761219 43.761219,46.563846 38.5,43.526279 36.827789,42.560828 35.439172,41.172211 34.47372,39.5" transform="translate(-12,-12)" sodipodi:start="0.52359878" sodipodi:end="2.6179939" stroke-linejoin="round" color="#000000"/>
   </g>
   <path transform="translate(-9,0)" d="m 48,24 c 0,2.209139 -1.343146,4 -3,4 -1.656854,0 -3,-1.790861 -3,-4 0,-2.209139 1.343146,-4 3,-4 1.656854,0 3,1.790861 3,4 z" sodipodi:ry="4" sodipodi:rx="3" sodipodi:cy="24" sodipodi:cx="45" sodipodi:type="arc" fill="#295577" stroke="#295577" stroke-linejoin="bevel" stroke-linecap="square" stroke-width="2" stroke-dashoffset="13.8"/>
   <path transform="translate(-23,0)" d="m 48,24 c 0,2.209139 -1.343146,4 -3,4 -1.656854,0 -3,-1.790861 -3,-4 0,-2.209139 1.343146,-4 3,-4 1.656854,0 3,1.790861 3,4 z" sodipodi:ry="4" sodipodi:rx="3" sodipodi:cy="24" sodipodi:cx="45" sodipodi:type="arc" fill="#295577" stroke="#295577" stroke-linejoin="bevel" stroke-linecap="square" stroke-width="2" stroke-dashoffset="13.8"/>
  </g>
 </g>
</svg>
