<?xml version="1.0" encoding="UTF-8" standalone="no"?>
<svg xmlns="http://www.w3.org/2000/svg" xmlns:xlink="http://www.w3.org/1999/xlink" xmlns:sodipodi="http://sodipodi.sourceforge.net/DTD/sodipodi-0.dtd" xmlns:inkscape="http://www.inkscape.org/namespaces/inkscape" width="64" height="64" version="1.1">
 <defs>
  <linearGradient id="linearGradient3253">
   <stop stop-color="#3d8eca"/>
   <stop offset="0.3" stop-color="#c8dff0"/>
   <stop offset="1" stop-color="#3d8eca"/>
  </linearGradient>
  <linearGradient inkscape:collect="always" xlink:href="#linearGradient3253" id="linearGradient16003" x1="32" y1="23.5" x2="40.43" y2="31.93" gradientUnits="userSpaceOnUse"/>
 </defs>
 <metadata/>
 <g inkscape:groupmode="layer" inkscape:label="Layer 1">
  <path sodipodi:nodetypes="cc" inkscape:connector-curvature="0" d="M 14,50 L 50,14" fill="none" stroke="#295577" stroke-linecap="square" stroke-width="14"/>
  <path sodipodi:nodetypes="cc" inkscape:connector-curvature="0" d="M 14,50 L 50,14" fill="none" stroke="url(#linearGradient16003)" stroke-linecap="square" stroke-width="10"/>
  <path inkscape:connector-curvature="0" d="M 32,23.5 L 40.43,31.93" fill="#ade9f7" stroke="#295577" stroke-width="2"/>
  <g>
   <path sodipodi:nodetypes="ccc" inkscape:connector-curvature="0" d="M 26,38 C 24.29,36.11 24.29,31.39 26,29.5 C 27.4,28.02 29.02,27.64 30.72,27.66" fill="none" stroke="#295577" stroke-width="2"/>
   <path d="M 26,38 C 27.71,39.89 27.71,44.61 26,46.5 C 24.6,47.98 23.07,48.36 21.37,48.34" inkscape:connector-curvature="0" sodipodi:nodetypes="ccc" fill="none" stroke="#295577" stroke-linecap="round" stroke-width="2"/>
  </g>
  <g transform="translate(6,-6)">
   <path d="M 26,38 C 24.29,36.11 24.29,31.39 26,29.5" fill="none" stroke="#295577" stroke-width="2"/>
   <path d="M 26,38 C 27.71,39.89 27.71,44.61 26,46.5 C 24.6,47.98 22.98,48.36 21.28,48.34" inkscape:connector-curvature="0" sodipodi:nodetypes="ccc" fill="none" stroke="#295577" stroke-linecap="round" stroke-width="2"/>
   <path d="M 32,40.3 C 30.6,41.78 28.98,42.16 27.28,42.14" inkscape:connector-curvature="0" sodipodi:nodetypes="cc" fill="none" stroke="#295577" stroke-linecap="round" stroke-width="1.7962"/>
  </g>
  <g transform="translate(-5.913,5.913)">
   <path sodipodi:nodetypes="ccc" inkscape:connector-curvature="0" d="M 26,38 C 24.29,36.11 24.29,31.39 26,29.5 C 27.4,28.02 28.93,27.7 30.63,27.72" fill="none" stroke="#295577" stroke-width="2"/>
   <path d="M 26,38 C 27.71,39.89 27.71,44.61 26,46.5 C 24.6,47.98 22.98,48.36 21.28,48.34" inkscape:connector-curvature="0" sodipodi:nodetypes="ccc" fill="none" stroke="#295577" stroke-linecap="round" stroke-width="2"/>
  </g>
  <g transform="translate(-12,12)">
   <path sodipodi:nodetypes="ccc" inkscape:connector-curvature="0" d="M 26,38 C 24.29,36.11 24.29,31.39 26,29.5 C 27.4,28.02 29.1,27.64 30.8,27.66" fill="none" stroke="#295577" stroke-width="2"/>
   <path d="M 26,38 C 27.71,39.89 27.71,44.61 26,46.5" fill="none" stroke="#295577" stroke-linecap="round" stroke-width="2"/>
   <path sodipodi:nodetypes="cc" inkscape:connector-curvature="0" d="M 20,35.55 C 21.4,34.07 23.02,33.69 24.72,33.71" fill="none" stroke="#295577" stroke-width="2"/>
  </g>
  <path d="m 22.121321,5.564971 5.656854,5.656854 -9.192388,9.192388 3.535534,3.535534 -16.970563,4.242641 4.242641,-16.970563 3.535534,3.535534 z" inkscape:connector-curvature="0" sodipodi:nodetypes="cccccccc" fill="#c8dff0" stroke="#295577" stroke-width="2"/>
  <path d="M 42.029437,58.970563 36.372583,53.313709 45.564971,44.121321 42.029437,40.585787 59,36.343146 54.757359,53.313709 51.221825,49.778175 z" inkscape:connector-curvature="0" sodipodi:nodetypes="cccccccc" fill="#c8dff0" stroke="#295577" stroke-width="2"/>
 </g>
</svg>
