<?xml version="1.0" encoding="UTF-8" standalone="no"?>
<svg xmlns="http://www.w3.org/2000/svg" xmlns:sodipodi="http://sodipodi.sourceforge.net/DTD/sodipodi-0.dtd" xmlns:inkscape="http://www.inkscape.org/namespaces/inkscape" width="64" height="64" version="1.1">
 <metadata/>
 <g inkscape:label="Layer 1" inkscape:groupmode="layer">
  <g transform="translate(2.9999663,3.0005728)">
   <path d="M 40,55 7.999,55 C 5.311,55.06 2.942,52.69 3,50 L 3,7.999 C 2.944,5.311 5.309,2.944 7.999,3 L 50,2.999 c 2.68,-0.064 5.06,2.318 5,4.999 L 55,40 z" inkscape:connector-curvature="0" sodipodi:nodetypes="ccccccccc" fill="#c8dff0" stroke="#295577" stroke-linejoin="round" stroke-linecap="round" color="#000000" stroke-width="2"/>
   <path d="m 55,40 -10,0 c -2.76,0 -5,2.24 -5,5 l 0,10" inkscape:connector-curvature="0" sodipodi:nodetypes="cccc" fill="#5a9ed2" stroke="#295577" stroke-linejoin="round" stroke-linecap="round" stroke-width="2" stroke-dashoffset="5.3"/>
  </g>
  <g transform="translate(-3,7)">
   <g>
    <path sodipodi:type="arc" sodipodi:cx="44" sodipodi:cy="34" sodipodi:rx="12" sodipodi:ry="12" d="m 56,34 c 0,6.627417 -5.372583,12 -12,12 -8.15e-4,0 -0.0016,0 -0.0024,0 L 44,34 z" transform="translate(-12,-12)" sodipodi:start="0" sodipodi:end="1.571" fill="#295577" stroke="#295577" stroke-linejoin="round" stroke-linecap="round" color="#000000" stroke-width="0"/>
    <path sodipodi:end="1.571" sodipodi:start="0" transform="matrix(-1,0,0,-1,76,56)" d="m 56,34 c 0,6.627417 -5.372583,12 -12,12 -8.15e-4,0 -0.0016,0 -0.0024,0 L 44,34 z" sodipodi:ry="12" sodipodi:rx="12" sodipodi:cy="34" sodipodi:cx="44" sodipodi:type="arc" fill="#295577" stroke="#295577" stroke-linejoin="round" stroke-linecap="round" color="#000000" stroke-width="0"/>
   </g>
   <path d="m 44,22 c 0,6.627417 -5.372583,12 -12,12 -6.627417,0 -12,-5.372583 -12,-12 0,-6.627417 5.372583,-12 12,-12 6.627417,0 12,5.372583 12,12 z" sodipodi:ry="12" sodipodi:rx="12" sodipodi:cy="22" sodipodi:cx="32" sodipodi:type="arc" fill="none" stroke="#295577" stroke-linejoin="round" stroke-linecap="round" color="#000000" stroke-width="2"/>
  </g>
 </g>
</svg>
